<?xml version="1.0" standalone="no"?>
<!DOCTYPE svg PUBLIC "-//W3C//DTD SVG 20010904//EN"
 "http://www.w3.org/TR/2001/REC-SVG-20010904/DTD/svg10.dtd">
<svg version="1.0" xmlns="http://www.w3.org/2000/svg"
 width="615.000000pt" height="456.000000pt" viewBox="0 0 615.000000 456.000000"
 preserveAspectRatio="xMidYMid meet">
<metadata>
Created by potrace 1.16, written by Peter Selinger 2001-2019
</metadata>
<g transform="translate(0.000000,456.000000) scale(0.100000,-0.100000)"
fill="#000000" stroke="none">
<path d="M2995 4474 c-112 -12 -327 -77 -420 -127 -126 -69 -225 -171 -293
-304 -11 -23 -25 -50 -30 -60 -36 -69 -57 -126 -78 -209 -20 -81 -24 -118 -24
-252 1 -95 8 -204 19 -277 l17 -120 -35 -31 c-36 -32 -36 -32 -36 -115 0 -96
24 -187 68 -264 47 -81 66 -99 110 -110 l42 -10 7 -105 c4 -58 12 -123 17
-145 35 -144 35 -145 110 -310 68 -151 66 -179 -23 -296 -75 -100 -97 -120
-157 -152 -24 -13 -54 -29 -64 -35 -11 -6 -47 -23 -80 -38 -69 -30 -373 -182
-425 -211 -19 -11 -64 -40 -100 -65 -36 -25 -123 -73 -195 -107 -71 -34 -137
-66 -147 -71 -21 -12 -171 -48 -268 -65 -374 -65 -618 -404 -666 -924 l-7 -71
2778 0 2778 0 -7 41 c-4 22 -9 68 -12 102 -6 70 -44 232 -76 322 -70 202 -183
355 -328 446 -95 60 -163 81 -425 131 -27 5 -54 13 -60 18 -5 4 -38 17 -73 29
-34 12 -70 25 -80 31 -9 5 -51 25 -92 45 -41 20 -115 67 -165 104 -99 74 -185
129 -287 184 -94 51 -104 57 -176 105 -35 23 -65 42 -68 42 -12 0 -139 105
-205 170 -97 95 -115 134 -98 210 7 30 23 78 35 105 12 28 28 66 34 85 7 19
19 52 27 74 7 21 21 89 29 150 9 61 19 140 24 176 5 36 9 73 10 82 0 9 32 43
70 75 101 82 130 144 130 275 l0 95 -40 46 -41 46 11 188 c6 103 8 215 5 248
-15 161 -35 254 -72 325 -7 14 -13 28 -13 32 0 19 -76 129 -130 190 -128 142
-287 229 -509 277 -89 20 -246 32 -316 25z m250 -839 c134 -35 238 -119 271
-217 21 -64 21 -188 0 -245 -22 -61 -59 -104 -159 -184 -100 -80 -124 -113
-133 -181 l-7 -48 -115 0 -115 0 7 78 c12 126 30 153 194 290 64 53 84 90 84
153 -1 54 -18 92 -57 129 -24 23 -35 25 -110 25 -75 0 -86 -2 -110 -25 -31
-29 -60 -81 -70 -127 -3 -18 -12 -33 -18 -34 -11 0 -187 0 -214 1 -35 1 3 169
56 245 38 56 115 112 186 135 76 24 226 26 310 5z m-7 -1117 l-3 -123 -125 0
-125 0 -3 123 -3 122 131 0 131 0 -3 -122z"/>
</g>
</svg>
